<?xml version="1.0" encoding="UTF-8" standalone="no"?>
<!DOCTYPE svg PUBLIC "-//W3C//DTD SVG 1.1//EN" "http://www.w3.org/Graphics/SVG/1.1/DTD/svg11.dtd">
<!-- Created with Vectornator (http://vectornator.io/) -->
<svg height="500.0pt" stroke-miterlimit="10" style="fill-rule:nonzero;clip-rule:evenodd;stroke-linecap:round;stroke-linejoin:round;" version="1.1" viewBox="0 0 500 500" width="500.0pt" xml:space="preserve" xmlns="http://www.w3.org/2000/svg" xmlns:xlink="http://www.w3.org/1999/xlink">
<defs/>
<g id="Layer-1">
<path d="M422.57 405.94L77.4301 405.94C60.1104 405.94 46.0538 391.884 46.0538 374.564L46.0538 123.553C46.0538 106.234 60.1104 92.177 77.4301 92.177L422.57 92.177C439.89 92.177 453.946 106.234 453.946 123.553L453.946 374.564C453.946 391.884 439.89 405.94 422.57 405.94Z" fill="#fafafa" fill-rule="nonzero" opacity="1" stroke="#fafafa" stroke-linecap="butt" stroke-linejoin="round" stroke-width="80"/>
<path d="M422.57 405.94L77.4301 405.94C60.1104 405.94 46.0538 391.884 46.0538 374.564L46.0538 123.553C46.0538 106.234 60.1104 92.177 77.4301 92.177L422.57 92.177C439.89 92.177 453.946 106.234 453.946 123.553L453.946 374.564C453.946 391.884 439.89 405.94 422.57 405.94Z" fill="none" opacity="1" stroke="#000000" stroke-linecap="butt" stroke-linejoin="round" stroke-width="60"/>
<path d="M375.505 139.242C358.177 139.242 344.129 153.289 344.129 170.618C344.129 187.947 358.177 201.994 375.505 201.994C392.834 201.994 406.882 187.947 406.882 170.618C406.882 153.289 392.834 139.242 375.505 139.242Z" fill="#000000" fill-rule="nonzero" opacity="1" stroke="#000000" stroke-linecap="butt" stroke-linejoin="miter" stroke-width="40"/>
<path d="M453.821 357.37L297.159 223.487L81.4463 407.823M253.483 260.793L171.559 192.111L49.9758 294.084" fill="none" opacity="1" stroke="#000000" stroke-linecap="round" stroke-linejoin="round" stroke-width="40"/>
</g>
</svg>
