<?xml version="1.0" encoding="UTF-8" standalone="no"?>
<!DOCTYPE svg PUBLIC "-//W3C//DTD SVG 1.1//EN" "http://www.w3.org/Graphics/SVG/1.1/DTD/svg11.dtd">
<!-- Created with Vectornator (http://vectornator.io/) -->
<svg height="24.0pt" stroke-miterlimit="10" style="fill-rule:nonzero;clip-rule:evenodd;stroke-linecap:round;stroke-linejoin:round;" version="1.1" viewBox="0 0 24 24" width="24.0pt" xml:space="preserve" xmlns="http://www.w3.org/2000/svg" xmlns:xlink="http://www.w3.org/1999/xlink">
<defs/>
<g id="Layer-1">
<g opacity="1">
<g opacity="1">
<g opacity="1">
<path d="M1.45141 16.108L1.45141 16.9633C8.48383 23.0799 15.5162 23.0799 22.5486 16.9633L22.5486 16.108L1.45141 16.108Z" fill="#ffffff" fill-rule="nonzero" opacity="1" stroke="none"/>
<path d="M1.45141 16.108L5.39092 16.4709C5.59827 16.4881 5.72788 16.6091 5.77969 16.8337L5.88337 18.5702L9.30453 18.8294L9.51188 17.2484C9.54642 17.0583 9.67603 16.9287 9.90065 16.8596L14.0994 16.8596C14.324 16.9287 14.4536 17.0583 14.4881 17.2484L14.6955 18.8294L18.1166 18.5702L18.2203 16.8337C18.2721 16.6091 18.4017 16.4881 18.6091 16.4709L22.5486 16.108L22.5486 9.73216C23.067 9.05829 23.5508 8.35854 24 7.63281C23.3953 6.61337 22.6782 5.68033 21.8488 4.83371C21.1058 5.17928 20.3974 5.58532 19.7235 6.05184C19.0324 5.41251 18.2721 4.85959 17.4428 4.39308C17.5637 3.51187 17.6329 2.63066 17.6501 1.74945C16.6307 1.26565 15.568 0.902799 14.4622 0.6609C14.013 1.40388 13.6156 2.17278 13.27 2.9676C12.4233 2.84664 11.5767 2.84664 10.73 2.9676C10.3844 2.17278 9.98706 1.40388 9.53781 0.6609C8.43197 0.902799 7.36932 1.26565 6.34988 1.74945C6.36715 2.63066 6.43629 3.51187 6.55724 4.39308C5.72788 4.85959 4.9676 5.41251 4.27646 6.05184C3.6026 5.58532 2.89417 5.17928 2.15119 4.83371C1.32182 5.68033 0.604756 6.61337 0 7.63281C0.449246 8.35854 0.933045 9.05829 1.45141 9.73216L1.45141 16.108ZM1.45141 16.9633L1.45141 17.9741C1.45141 25.1274 22.5227 25.1274 22.5227 17.9741L22.5227 16.9633L19.0497 17.2743L18.9201 19.0626C18.8855 19.2354 18.7646 19.3477 18.5572 19.3996L14.3585 19.6847C14.1512 19.6847 14.013 19.5897 13.9439 19.3996L13.6847 17.7149L10.3154 17.7149L10.0561 19.3996C9.98706 19.5897 9.84884 19.6847 9.64149 19.6847L5.44278 19.3996C5.23543 19.3477 5.11448 19.2354 5.07994 19.0626L4.95033 17.2743L1.45141 16.9633Z" fill="#478cbf" fill-rule="nonzero" opacity="1" stroke="none"/>
<path d="M11.2484 14.216C11.3261 15.0972 12.6739 15.0972 12.7516 14.216L12.7516 11.9871C12.6739 11.1058 11.3261 11.1058 11.2484 11.9871L11.2484 14.216Z" fill="#ffffff" fill-rule="nonzero" opacity="1" stroke="none"/>
<path d="M15.1879 12.298C15.1879 11.0098 16.2322 9.96545 17.5205 9.96545C18.8088 9.96545 19.8532 11.0098 19.8532 12.298C19.8532 13.5863 18.8088 14.6307 17.5205 14.6307C16.2322 14.6307 15.1879 13.5863 15.1879 12.298Z" fill="#ffffff" fill-rule="nonzero" opacity="1" stroke="none"/>
<path d="M4.14687 12.298C4.14687 11.0098 5.19122 9.96545 6.47949 9.96545C7.76776 9.96545 8.81208 11.0098 8.81208 12.298C8.81208 13.5863 7.76776 14.6307 6.47949 14.6307C5.19122 14.6307 4.14687 13.5863 4.14687 12.298Z" fill="#ffffff" fill-rule="nonzero" opacity="1" stroke="none"/>
</g>
<g opacity="1">
<path d="M5.13175 12C5.13175 11.1412 5.82797 10.4449 6.68684 10.4449C7.54565 10.4449 8.24188 11.1412 8.24188 12C8.24188 12.8588 7.54565 13.5551 6.68684 13.5551C5.82797 13.5551 5.13175 12.8588 5.13175 12Z" fill="#414042" fill-rule="nonzero" opacity="1" stroke="none"/>
<path d="M15.7581 12C15.7581 11.1412 16.4543 10.4449 17.3132 10.4449C18.172 10.4449 18.8683 11.1412 18.8683 12C18.8683 12.8588 18.172 13.5551 17.3132 13.5551C16.4543 13.5551 15.7581 12.8588 15.7581 12Z" fill="#414042" fill-rule="nonzero" opacity="1" stroke="none"/>
</g>
</g>
</g>
</g>
</svg>
